<svg width="79" height="82" viewBox="0 0 79 82" fill="none" xmlns="http://www.w3.org/2000/svg">
<path d="M57.6264 17.6905C59.8384 17.4768 62.1388 17.6553 64.5412 18.568L57.6264 17.6905ZM57.6264 17.6905C57.1044 17.741 56.5874 17.8133 56.0752 17.9029C58.8477 13.9042 59.7216 8.37978 58.1917 3.81036M75.7637 38.1058L76.9521 38.0713C76.9521 38.0714 76.9521 38.0715 76.9521 38.0716C77.2271 47.5399 74.3496 56.3117 70.7062 64.7217L70.7061 64.7221C69.4629 67.5891 67.6994 71.1916 65.3449 74.2298C63.002 77.2531 59.9522 79.8736 56.1016 80.4815L56.1016 80.4815C52.9762 80.9746 49.6553 80.1816 46.937 79.4989C46.7902 79.462 46.645 79.4255 46.5013 79.3894C41.7654 78.1985 38.6722 77.4207 34.0812 78.945L34.081 78.945C30.5636 80.1122 27.3864 80.9507 24.3844 80.6034C21.2919 80.2457 18.5556 78.6588 15.8439 75.3878C10.8608 69.3773 6.31384 61.7724 3.89685 53.7225C1.47886 45.6694 1.17149 37.0882 4.80584 29.2348C7.63527 23.1193 12.9948 18.3078 19.978 17.4399M19.978 17.4399L20.1246 18.6197L19.978 17.4399ZM19.978 17.4399C23.6158 16.9875 26.831 17.8317 29.8235 18.8552C30.5843 19.1154 31.323 19.3836 32.0494 19.6472C33.5741 20.2007 35.0447 20.7346 36.5516 21.134C34.7579 16.8724 31.2272 13.5918 26.6948 12.2075L26.6899 12.206C26.1937 12.0521 25.8588 11.76 25.6328 11.4734C25.2153 10.9919 24.9818 10.3049 25.189 9.52489L25.1899 9.52164C25.7819 7.31807 26.653 4.4225 28.4329 2.42405C28.5412 2.30134 28.6501 2.22209 28.7138 2.17961C28.8224 2.0881 28.9206 2.02626 28.9646 1.99859C28.9682 1.99631 28.9715 1.99426 28.9743 1.99245L29.0056 1.97261L29.0237 1.96267L29.0403 1.95258L29.0409 1.95217C29.0634 1.93862 29.1263 1.90073 29.2111 1.86331C29.8315 1.57964 30.5866 1.60386 31.2524 2.09848C34.7981 4.73166 38.1937 8.65502 40.3027 13.0461C43.3875 6.77005 49.7778 2.15719 57.0179 1.57434C57.6304 1.52464 58.2076 1.71458 58.6333 2.13445C58.9367 2.43367 59.1106 2.79684 59.194 3.15023C59.2356 3.22498 59.2814 3.32001 59.3193 3.43367C59.3194 3.43392 59.3195 3.43417 59.3196 3.43442L59.2452 3.45921C59.246 3.46704 59.2467 3.47486 59.2474 3.48265L59.1491 3.49125L58.1917 3.81036M58.1917 3.81036L59.1433 3.49176L58.0631 3.58628C58.0754 3.60611 58.0883 3.62506 58.1012 3.64401C58.1355 3.69415 58.1697 3.74426 58.1917 3.81036Z" fill="white" stroke="white" stroke-width="2.3777"/>
<path d="M21.249 25.5669L21.25 25.5665C21.8618 25.3151 22.5209 25.3398 23.0763 25.678C23.5905 25.991 23.8839 26.4913 24.0107 26.9599C24.2577 27.8721 23.9694 29.1826 22.6889 29.7086C20.2017 30.7331 18.2306 32.983 16.987 35.7431C15.7442 38.5015 15.2945 41.6295 15.7243 44.2211L21.249 25.5669ZM21.249 25.5669C17.5123 27.106 14.7592 30.2028 13.0972 33.7647M21.249 25.5669L13.0972 33.7647M13.0972 33.7647C11.4365 37.3242 10.8207 41.4373 11.4357 45.1462L13.0972 33.7647ZM11.4357 45.1468C11.5439 45.8 11.9116 46.3426 12.4809 46.6397C13.0098 46.9157 13.5864 46.9153 14.0563 46.7849C14.9752 46.5298 15.9533 45.6004 15.7244 44.2214L11.4357 45.1468Z" fill="white" stroke="white" stroke-width="2.3777"/>
<path d="M13.9472 52.3193L13.9486 52.3193C14.61 52.3186 15.1854 52.0479 15.579 51.5893C15.9514 51.1554 16.109 50.6171 16.1092 50.1227C16.1094 49.6284 15.9521 49.0896 15.5792 48.6553C15.1848 48.1962 14.6086 47.9264 13.9472 47.9264C13.2855 47.9264 12.7096 48.1968 12.3156 48.6557C11.943 49.0897 11.7854 49.6282 11.7853 50.1224C11.7851 50.6167 11.9422 51.1555 12.3151 51.5899C12.7093 52.0492 13.2855 52.3193 13.9472 52.3193Z" fill="white" stroke="white" stroke-width="2.3777"/>
</svg>
