<svg width="23" height="7" viewBox="0 0 23 7" fill="none" xmlns="http://www.w3.org/2000/svg">
<path d="M22.1686 1.16105C22.1695 1.31044 22.1172 1.45805 22.0159 1.59303C21.9145 1.72801 21.7665 1.84693 21.5828 1.94105L12.0828 6.77105C11.7995 6.91813 11.4441 6.99854 11.0774 6.99854C10.7107 6.99854 10.3553 6.91813 10.072 6.77105L0.571983 1.77105C0.24864 1.60131 0.0453011 1.3574 0.00669987 1.09297C-0.0319014 0.828545 0.0973967 0.565264 0.366149 0.361047C0.634902 0.156831 1.0211 0.0284066 1.43977 0.00402689C1.85845 -0.0203528 2.27531 0.0613084 2.59865 0.231047L11.0853 4.70105L19.572 0.381048C19.8044 0.258765 20.0874 0.181087 20.3875 0.157208C20.6876 0.133328 20.9923 0.164245 21.2655 0.246301C21.5386 0.328357 21.7689 0.458117 21.9289 0.620227C22.089 0.782338 22.1722 0.970014 22.1686 1.16105Z" fill="white"/>
</svg>
