<?xml version="1.0" standalone="no"?>
<!DOCTYPE svg PUBLIC "-//W3C//DTD SVG 20010904//EN"
 "http://www.w3.org/TR/2001/REC-SVG-20010904/DTD/svg10.dtd">
<svg version="1.0" xmlns="http://www.w3.org/2000/svg"
 width="512.000000pt" height="512.000000pt" viewBox="0 0 512.000000 512.000000"
 preserveAspectRatio="xMidYMid meet">

<g transform="translate(0.000000,512.000000) scale(0.100000,-0.100000)"
fill="#fff" stroke="none">
<path d="M357 4175 c-58 -22 -110 -68 -143 -127 l-29 -53 0 -1435 0 -1435 30
-54 c31 -56 88 -106 148 -128 24 -9 565 -12 2193 -12 2373 -1 2208 -5 2285 58
19 16 48 53 64 82 l30 54 0 1435 0 1435 -29 53 c-34 61 -85 106 -146 127 -62
22 -4344 21 -4403 0z m4381 -145 c49 -30 63 -74 60 -188 l-3 -96 -1110 -873
c-610 -479 -1116 -872 -1123 -872 -7 -1 -513 392 -1125 872 l-1112 874 -3 96
c-3 113 11 157 60 187 33 20 44 20 2178 20 2134 0 2145 0 2178 -20z m-4138
-677 l125 -99 3 -1092 2 -1092 -157 0 c-141 0 -162 2 -191 20 -65 40 -62 -31
-62 1285 l0 1196 78 -60 c42 -33 133 -104 202 -158z m4186 -2208 c-27 -65 -60
-75 -239 -75 l-157 0 2 1092 3 1092 200 157 200 157 3 -1194 c2 -1023 0 -1199
-12 -1229z m-3081 1339 c440 -345 812 -635 828 -643 24 -15 30 -15 55 0 21 12
1248 971 1595 1246 l67 54 0 -1036 0 -1035 -1690 0 -1690 0 0 1037 c0 986 1
1035 18 1021 9 -9 377 -298 817 -644z"/>
</g>
</svg>
