<svg width="21" height="20" viewBox="0 0 21 20" fill="none" xmlns="http://www.w3.org/2000/svg">
<path d="M13.4156 10.0357C13.4156 9.35969 13.1449 8.71135 12.6632 8.23332C12.1814 7.75529 11.528 7.48674 10.8466 7.48674C10.1653 7.48674 9.51188 7.75529 9.03011 8.23332C8.54834 8.71135 8.27768 9.35969 8.27768 10.0357C8.27768 10.7118 8.54834 11.3601 9.03011 11.8381C9.51188 12.3162 10.1653 12.5847 10.8466 12.5847C11.528 12.5847 12.1814 12.3162 12.6632 11.8381C13.1449 11.3601 13.4156 10.7118 13.4156 10.0357ZM0.887344 10.6229C3.06178 15.1678 6.34867 17.4551 10.7549 17.4551C15.1634 17.4551 18.448 15.1678 20.6224 10.6206C20.7096 10.4374 20.7549 10.2372 20.7549 10.0346C20.7549 9.83193 20.7096 9.63179 20.6224 9.44855C18.448 4.90362 15.1611 2.61637 10.7549 2.61637C6.34638 2.61637 3.06178 4.90362 0.887344 9.45082C0.710728 9.81951 0.710728 10.2474 0.887344 10.6229ZM10.8466 6.03018C13.0761 6.03018 14.8836 7.82357 14.8836 10.0357C14.8836 12.2479 13.0761 14.0413 10.8466 14.0413C8.61715 14.0413 6.8097 12.2479 6.8097 10.0357C6.8097 7.82357 8.61715 6.03018 10.8466 6.03018Z" fill="#2A2550" fill-opacity="0.7"/>
</svg>