<svg width="65" height="103" viewBox="0 0 65 103" fill="none" xmlns="http://www.w3.org/2000/svg">
<path d="M3.2251 97.0309L14.6871 67.6881L16.884 48.2219L23.8568 38.8037" stroke="white" stroke-width="5.54797" stroke-linecap="round"/>
<path d="M26.0018 9.00217C26.0018 13.0516 23.2991 15.7319 20.6475 15.7319C17.9958 15.7319 15.2932 13.0516 15.2932 9.00217C15.2932 4.95271 17.9958 2.27243 20.6475 2.27243C23.2991 2.27243 26.0018 4.95271 26.0018 9.00217Z" stroke="white" stroke-width="3.96284" stroke-linecap="round"/>
<path d="M36.6615 6.25128C36.6615 8.77192 34.9932 10.2301 33.5996 10.2301C32.2059 10.2301 30.5377 8.77192 30.5377 6.25128C30.5377 3.73064 32.2059 2.27243 33.5996 2.27243C34.9932 2.27243 36.6615 3.73064 36.6615 6.25128Z" stroke="white" stroke-width="3.96284" stroke-linecap="round"/>
<path d="M45.9457 7.49355C45.9457 9.69119 44.572 10.7274 43.7053 10.7274C42.8385 10.7274 41.4648 9.69119 41.4648 7.49355C41.4648 5.29591 42.8385 4.25974 43.7053 4.25974C44.572 4.25974 45.9457 5.29591 45.9457 7.49355Z" stroke="white" stroke-width="3.96284" stroke-linecap="round"/>
<path d="M54.6951 12.2884C54.6951 14.3698 53.3815 15.3503 52.5502 15.3503C51.7188 15.3503 50.4052 14.3698 50.4052 12.2884C50.4052 10.2071 51.7188 9.22653 52.5502 9.22653C53.3815 9.22653 54.6951 10.2071 54.6951 12.2884Z" stroke="white" stroke-width="3.96284" stroke-linecap="round"/>
<mask id="path-6-inside-1_607_6295" fill="white">
<ellipse cx="60.5353" cy="17.828" rx="3.66786" ry="4.12634"/>
</mask>
<path d="M60.2403 17.828C60.2403 17.9208 60.2238 17.9912 60.2056 18.0396C60.1964 18.064 60.187 18.0823 60.1794 18.0949C60.1718 18.1076 60.1669 18.1131 60.167 18.113C60.1671 18.1128 60.1734 18.1058 60.1881 18.0946C60.2029 18.0834 60.2266 18.0677 60.2603 18.0517C60.3326 18.0172 60.4301 17.9915 60.5353 17.9915V25.9172C65.1755 25.9172 68.166 21.8438 68.166 17.828H60.2403ZM60.5353 17.9915C60.6405 17.9915 60.7379 18.0172 60.8103 18.0517C60.844 18.0677 60.8676 18.0834 60.8825 18.0946C60.8972 18.1058 60.9034 18.1128 60.9036 18.113C60.9037 18.1131 60.8988 18.1076 60.8912 18.0949C60.8836 18.0823 60.8742 18.064 60.865 18.0396C60.8468 17.9912 60.8303 17.9208 60.8303 17.828H52.9046C52.9046 21.8438 55.8951 25.9172 60.5353 25.9172V17.9915ZM60.8303 17.828C60.8303 17.7352 60.8468 17.6648 60.865 17.6164C60.8742 17.592 60.8836 17.5737 60.8912 17.5611C60.8988 17.5484 60.9037 17.5429 60.9036 17.543C60.9034 17.5432 60.8972 17.5502 60.8825 17.5614C60.8676 17.5726 60.844 17.5883 60.8103 17.6043C60.7379 17.6388 60.6405 17.6645 60.5353 17.6645V9.73883C55.8951 9.73883 52.9046 13.8122 52.9046 17.828H60.8303ZM60.5353 17.6645C60.4301 17.6645 60.3326 17.6388 60.2603 17.6043C60.2266 17.5883 60.2029 17.5726 60.1881 17.5614C60.1734 17.5502 60.1671 17.5432 60.167 17.543C60.1669 17.5429 60.1718 17.5484 60.1794 17.5611C60.187 17.5737 60.1964 17.592 60.2056 17.6164C60.2238 17.6648 60.2403 17.7352 60.2403 17.828H68.166C68.166 13.8122 65.1755 9.73883 60.5353 9.73883V17.6645Z" fill="white" mask="url(#path-6-inside-1_607_6295)"/>
<path d="M25.1227 20.57C18.5664 24.5436 20.5698 31.3316 22.3909 34.229L35.8015 54.8417L43.9969 48.1364C47.9704 43.9642 50.9506 45.239 51.9439 46.398C53.732 48.1861 52.689 50.7854 51.9439 51.8616L42.5068 66.5139L31.828 74.7092C27.4572 85.239 29.6818 89.6366 31.2485 93.3967C33.4891 97.068 35.6353 99.9985 42.5068 100.126C53.2353 100.324 53.6391 90.192 55.4208 78.1861L59.3943 37.2092C60.096 28.3542 58.3576 24.4402 54.179 21.8118C41.8612 14.0634 29.6757 17.7555 25.1227 20.57Z" stroke="white" stroke-width="5.54797"/>
</svg>
