<svg width="8" height="15" viewBox="0 0 8 15" fill="none" xmlns="http://www.w3.org/2000/svg">
<path d="M6.82968 14.4998C6.68028 14.5003 6.53267 14.4673 6.39769 14.4033C6.26271 14.3393 6.14379 14.2458 6.04968 14.1298L1.21968 8.12979C1.07259 7.95085 0.992188 7.72641 0.992188 7.49479C0.992188 7.26316 1.07259 7.03872 1.21968 6.85979L6.21968 0.859788C6.38941 0.655571 6.63333 0.527146 6.89775 0.502767C7.16218 0.478387 7.42546 0.560049 7.62968 0.729787C7.83389 0.899526 7.96232 1.14344 7.9867 1.40786C8.01108 1.67229 7.92941 1.93557 7.75968 2.13979L3.28968 7.49979L7.60967 12.8598C7.73196 13.0066 7.80964 13.1853 7.83351 13.3749C7.85739 13.5644 7.82648 13.7568 7.74442 13.9294C7.66237 14.1019 7.53261 14.2473 7.3705 14.3484C7.20838 14.4495 7.02071 14.502 6.82968 14.4998Z" fill="black"/>
</svg>
