<svg width="8" height="15" viewBox="0 0 8 15" fill="none" xmlns="http://www.w3.org/2000/svg">
<path d="M1.17032 0.500213C1.31972 0.499704 1.46733 0.532677 1.60231 0.596705C1.73729 0.660734 1.85621 0.754193 1.95032 0.870214L6.78032 6.87021C6.92741 7.04915 7.00781 7.27359 7.00781 7.50521C7.00781 7.73684 6.92741 7.96128 6.78032 8.14021L1.78032 14.1402C1.61059 14.3444 1.36667 14.4729 1.10225 14.4972C0.837822 14.5216 0.574541 14.44 0.370325 14.2702C0.166108 14.1005 0.037684 13.8566 0.0133042 13.5921C-0.0110755 13.3277 0.0705857 13.0644 0.240324 12.8602L4.71032 7.50021L0.390325 2.14021C0.268042 1.99343 0.190365 1.81469 0.166485 1.62514C0.142606 1.43559 0.173522 1.24317 0.255579 1.07064C0.337635 0.89811 0.467394 0.752699 0.629505 0.651608C0.791615 0.550518 0.979291 0.497981 1.17032 0.500213Z" fill="black"/>
</svg>
