<svg width="30" height="30" viewBox="0 0 79 79" fill="none" xmlns="http://www.w3.org/2000/svg">
<path d="M39.5 0C17.6868 0 0 17.6868 0 39.5C0 61.3132 17.6868 79 39.5 79C61.3132 79 79 61.3132 79 39.5C79 17.6868 61.3132 0 39.5 0ZM56.5608 26.6008L37.9923 52.3463C37.7328 52.7086 37.3906 53.0037 36.9943 53.2073C36.5979 53.4109 36.1587 53.5171 35.7131 53.5171C35.2675 53.5171 34.8283 53.4109 34.4319 53.2073C34.0356 53.0037 33.6935 52.7086 33.4339 52.3463L22.4392 37.1106C22.1041 36.6433 22.4392 35.9908 23.0123 35.9908H27.1474C28.0468 35.9908 28.902 36.4229 29.431 37.1635L35.7087 45.8747L49.569 26.6537C50.098 25.9219 50.9444 25.481 51.8526 25.481H55.9877C56.5608 25.481 56.8959 26.1335 56.5608 26.6008Z" fill="#4BAA71"/>
</svg>