<?xml version="1.0" standalone="no"?>
<!DOCTYPE svg PUBLIC "-//W3C//DTD SVG 20010904//EN"
 "http://www.w3.org/TR/2001/REC-SVG-20010904/DTD/svg10.dtd">
<svg version="1.0" xmlns="http://www.w3.org/2000/svg"
 width="512.000000pt" height="512.000000pt" viewBox="0 0 512.000000 512.000000"
 preserveAspectRatio="xMidYMid meet">

<g transform="translate(0.000000,512.000000) scale(0.100000,-0.100000)"
fill="#fff" stroke="none">
<path d="M535 4496 c-102 -48 -134 -113 -135 -267 l0 -107 -103 -4 c-92 -3
-108 -6 -157 -34 -60 -34 -113 -100 -130 -164 -7 -25 -9 -550 -8 -1582 l3
-1543 31 -55 c33 -60 99 -112 162 -130 51 -14 4673 -14 4724 0 63 18 129 70
162 130 l31 55 0 1565 0 1565 -22 41 c-28 53 -74 99 -127 127 l-41 22 -1561 3
-1561 2 -5 113 c-6 122 -21 167 -74 221 -64 63 -38 61 -614 64 l-525 2 -50
-24z m1075 -131 c20 -10 32 -27 39 -53 15 -52 15 -3052 0 -3104 -19 -69 -8
-68 -559 -68 l-492 0 -29 29 -29 29 0 1562 0 1562 29 29 29 29 492 0 c417 0
495 -2 520 -15z m-1210 -1782 l0 -1398 24 -50 c28 -60 56 -87 116 -114 43 -20
63 -21 550 -21 326 0 519 4 543 11 47 13 111 69 140 123 l22 41 3 1403 2 1402
1538 0 c1443 0 1539 -1 1572 -18 20 -10 42 -32 52 -52 17 -33 18 -128 18
-1550 0 -1422 -1 -1517 -18 -1550 -10 -20 -32 -42 -52 -52 -33 -17 -166 -18
-2350 -18 -2184 0 -2317 1 -2350 18 -20 10 -42 32 -52 52 -17 33 -18 128 -18
1550 0 1422 1 1517 18 1550 25 51 71 70 165 70 l77 0 0 -1397z"/>
<path d="M2140 3702 c-19 -9 -45 -32 -57 -51 l-23 -34 0 -531 c0 -515 1 -532
20 -564 12 -20 38 -41 65 -53 43 -19 73 -19 1259 -17 1209 3 1215 3 1242 24
15 11 37 33 48 48 21 27 21 40 24 552 l3 525 -23 41 c-14 24 -38 48 -60 59
-36 18 -79 19 -1250 19 -1135 0 -1215 -1 -1248 -18z m2438 -614 l-3 -493
-1187 -3 -1188 -2 0 495 0 495 1190 0 1190 0 -2 -492z"/>
<path d="M2143 2250 c-77 -34 -84 -58 -81 -262 l3 -177 29 -30 c48 -50 63 -52
319 -49 l237 3 37 38 38 37 3 178 c2 164 1 179 -18 210 -39 63 -77 72 -315 72
-186 0 -215 -3 -252 -20z m447 -250 l0 -130 -195 0 -195 0 0 130 0 130 195 0
195 0 0 -130z"/>
<path d="M3080 2248 c-76 -39 -85 -66 -85 -253 0 -174 6 -197 63 -240 25 -19
45 -20 322 -23 295 -3 296 -3 330 20 61 41 70 72 70 249 0 145 -2 158 -22 189
-13 18 -36 43 -51 54 -27 20 -42 21 -305 24 -272 3 -278 2 -322 -20z m560
-248 l0 -130 -252 2 -253 3 -3 114 c-1 63 0 121 2 128 4 10 58 13 256 13 l250
0 0 -130z"/>
<path d="M4146 2260 c-16 -5 -40 -19 -54 -32 -44 -41 -52 -76 -52 -235 0 -167
9 -199 70 -240 32 -22 41 -23 270 -23 230 0 238 1 271 23 62 41 70 71 67 254
-3 176 -7 189 -72 237 -26 20 -42 21 -249 23 -122 1 -235 -2 -251 -7z m432
-262 l3 -128 -201 0 -200 0 0 123 c0 68 3 127 7 131 4 3 93 5 197 4 l191 -3 3
-127z"/>
<path d="M2140 1522 c-19 -9 -45 -32 -57 -51 -22 -32 -23 -44 -23 -201 0 -157
1 -169 23 -201 42 -64 65 -69 312 -69 247 0 270 5 312 69 22 32 23 44 23 201
0 157 -1 169 -23 201 -42 64 -65 69 -312 69 -190 0 -225 -2 -255 -18z m450
-252 l0 -130 -195 0 -195 0 0 130 0 130 195 0 195 0 0 -130z"/>
<path d="M3090 1529 c-81 -32 -104 -101 -99 -289 4 -137 16 -172 72 -214 27
-20 41 -21 315 -24 282 -2 288 -2 326 20 69 41 77 69 74 258 -3 152 -5 167
-25 196 -44 61 -62 64 -365 63 -156 0 -284 -5 -298 -10z m550 -259 l0 -130
-252 2 -253 3 -3 114 c-1 63 0 121 2 128 4 10 58 13 256 13 l250 0 0 -130z"/>
<path d="M4117 1518 c-64 -37 -77 -80 -77 -248 0 -174 14 -216 84 -249 39 -19
61 -21 260 -21 249 0 273 6 314 78 20 36 22 53 22 193 0 141 -2 157 -23 193
-40 71 -61 76 -317 76 -213 0 -227 -2 -263 -22z m463 -248 l0 -130 -200 0
-200 0 0 130 0 130 200 0 200 0 0 -130z"/>
</g>
</svg>
