<svg width="23" height="7" viewBox="0 0 23 7" fill="none" xmlns="http://www.w3.org/2000/svg">
<path d="M0.000295639 5.83749C-0.000509262 5.68809 0.0516968 5.54048 0.153076 5.4055C0.254454 5.27052 0.402431 5.15161 0.58613 5.05749L10.0861 0.227488C10.3694 0.0804062 10.7248 0 11.0915 0C11.4583 0 11.8137 0.0804062 12.097 0.227488L21.597 5.22749C21.9203 5.39723 22.1236 5.64114 22.1622 5.90556C22.2008 6.16999 22.0715 6.43327 21.8028 6.63749C21.534 6.8417 21.1479 6.97013 20.7292 6.99451C20.3105 7.01889 19.8936 6.93723 19.5703 6.76749L11.0836 2.29749L2.59696 6.61749C2.36455 6.73977 2.08155 6.81745 1.78143 6.84133C1.48131 6.86521 1.17664 6.83429 0.903469 6.75223C0.630301 6.67018 0.400064 6.54042 0.240005 6.37831C0.0799465 6.2162 -0.00323868 6.02852 0.000295639 5.83749Z" fill="white"/>
</svg>
