<svg width="82" height="60" viewBox="0 0 82 60" fill="none" xmlns="http://www.w3.org/2000/svg">
<path d="M35.0354 37.0109C35.0503 36.9651 35.0654 36.9217 35.089 36.8795C35.0915 36.8719 35.093 36.8642 35.0942 36.8564C35.0948 36.8523 35.0953 36.8482 35.0958 36.8441C35.0977 36.8287 35.0996 36.8132 35.1068 36.7982L35.0354 37.0109ZM35.0354 37.0109L35.0191 37.0065L35.0354 37.0109ZM25.5909 7.61665C25.6124 7.62386 25.6338 7.63112 25.6553 7.63843L25.6558 7.6386C30.4295 9.26788 33.1189 12.6738 35.9159 16.2158C36.0738 16.4158 36.2321 16.6163 36.391 16.8168C40.3352 21.7916 44.5099 26.5925 48.7161 31.3768C50.8107 33.7583 52.9184 36.1288 55.0307 38.4951L55.0309 38.4953C55.3051 38.8027 55.6742 39.2984 56.0676 39.831C56.1142 39.8942 56.1615 39.9582 56.2093 40.023C56.5762 40.5204 56.9761 41.0625 57.386 41.5868C57.8508 42.1815 58.312 42.7316 58.7316 43.1494C59.1572 43.573 59.4406 43.7569 59.5762 43.8045C59.5915 43.8033 59.623 43.7998 59.6743 43.7882C59.7859 43.763 59.9378 43.7118 60.1307 43.6286C60.5163 43.4625 60.9804 43.2065 61.472 42.9119C61.8683 42.6745 62.2633 42.4237 62.6334 42.1888C62.72 42.1338 62.8053 42.0796 62.8889 42.0268C63.3077 41.7618 63.7211 41.5039 64.011 41.3665C64.0112 41.3664 64.0115 41.3663 64.0117 41.3662L64.351 42.0824L25.5909 7.61665ZM25.5909 7.61665C30.0379 6.31944 34.6461 5.14598 39.0656 4.84236C44.3709 4.47789 49.3079 5.37414 53.3255 8.74195C62.2165 16.197 69.5318 25.9249 76.5668 35.2892L25.5909 7.61665ZM80.5583 35.1702C80.6053 35.2962 80.6519 35.4615 80.6559 35.6552C80.6574 35.6743 80.6583 35.6949 80.6583 35.717V35.7222C80.6516 36.7351 80.634 37.74 80.6164 38.7397C80.5728 41.2212 80.5297 43.6704 80.6572 46.1313L80.6573 46.1334C80.673 46.4519 80.5787 46.7585 80.4429 47.0016C80.308 47.2433 80.0854 47.5048 79.7624 47.6555L79.7598 47.6567C76.3189 49.2467 73.0401 51.1112 69.7343 53.0052C69.6079 53.0776 69.4815 53.15 69.3551 53.2225C66.2099 55.025 63.0335 56.8453 59.7072 58.4373C59.4937 58.6006 59.2226 58.7245 58.9067 58.7463C58.5284 58.7723 58.1685 58.646 57.8628 58.4106C51.9506 53.8579 46.2451 49.0149 40.7102 44.006C38.8414 44.9554 36.9537 45.8614 35.0755 46.7628L35.0655 46.7676C33.0357 47.7417 31.0168 48.7106 29.0253 49.7313L29.0231 49.7324C28.8125 49.8395 28.6076 49.8898 28.418 49.9074C28.3821 49.9235 28.3446 49.9409 28.3024 49.9605C28.2784 49.9716 28.2529 49.9834 28.2253 49.9961C28.1062 50.0509 27.9591 50.1166 27.7909 50.1727C27.7906 50.1728 27.7903 50.1729 27.79 50.173L27.5394 49.4211L80.5583 35.1702ZM80.5583 35.1702C80.5461 35.133 80.5203 35.0564 80.4804 34.9729C80.467 34.9405 80.4494 34.9036 80.4261 34.8648L80.4047 34.8291L80.3798 34.7959C76.1849 29.2173 71.8873 23.6934 67.3143 18.3936C66.8169 17.8171 66.3122 17.2251 65.7993 16.6235C62.1047 12.2898 57.9894 7.46275 53.1587 4.4006C49.0401 1.78865 44.31 1.0971 39.4773 1.38405C34.8562 1.65843 30.0859 2.83121 25.5799 4.12609C24.8686 3.02888 23.9771 2.10746 22.8847 1.53095C21.6208 0.863877 20.1511 0.693081 18.5209 1.16102L18.5206 1.16109C17.1702 1.5492 15.7298 2.54671 15.3485 4.20363L15.3484 4.20402C15.1647 5.00432 15.3666 5.73824 15.6874 6.34419C15.7597 6.48068 15.8393 6.61318 15.9239 6.74138C7.69139 8.30287 2.72407 16.0911 1.66351 24.4691L80.5583 35.1702ZM57.2948 53.7041C50.28 48.1514 43.5472 42.1866 37.0396 36.0415L37.0377 36.0397C36.771 35.7895 36.4805 35.678 36.2263 35.6274C35.9333 35.5458 35.5844 35.5272 35.2402 35.6516C35.0457 35.7219 34.8721 35.8311 34.7256 35.9737L34.5055 35.8637L34.2537 36.8009C33.3772 40.0622 32.0409 42.9048 30.0519 44.8842C28.0887 46.8378 25.4395 48.0024 21.7936 47.8403L21.7932 47.8403C19.3972 47.7348 16.71 46.759 14.2268 45.298C11.7482 43.8397 9.54149 41.9381 8.0966 40.0604L8.09659 40.0604C5.07481 36.1338 3.83061 30.1361 4.6195 24.4833C5.40809 18.8327 8.19504 13.7241 13.0011 11.4007C13.6071 11.1078 14.2398 10.8633 14.8911 10.661C14.9616 10.6609 15.0667 10.6559 15.1888 10.6247C15.4022 10.5721 15.6334 10.5094 15.8532 10.4498C15.967 10.4189 16.0777 10.3889 16.1813 10.3615C20.9338 9.33696 26.2296 10.5806 29.6935 13.8843L29.6937 13.8844C31.2257 15.3449 32.6079 17.057 33.9718 18.8455C34.3375 19.325 34.703 19.8116 35.0699 20.3C36.0587 21.6164 37.0568 22.9452 38.0913 24.1788C43.2747 30.3637 48.652 36.3845 54.0197 42.3944C55.2384 43.759 56.4567 45.123 57.6721 46.4883C57.6187 48.4743 57.4961 50.4506 57.3724 52.4432C57.3464 52.8627 57.3203 53.2829 57.2948 53.7041ZM40.8014 43.0696L40.804 43.0748L40.8014 43.0696ZM80.3725 34.797C80.3732 34.7979 80.3739 34.7988 80.3747 34.7998L80.3725 34.797ZM20.9103 4.2962L20.9111 4.29633C21.2128 4.34426 21.5354 4.52328 21.8737 4.84286C21.9696 4.93341 22.0629 5.03169 22.1535 5.13573C21.8158 5.23722 21.4843 5.33711 21.155 5.43635C20.6474 5.58929 20.1451 5.74065 19.6337 5.89383C19.6301 5.89041 19.6264 5.88699 19.6227 5.88357C19.3497 5.63017 19.0952 5.39386 18.9201 5.13752C18.733 4.86368 18.763 4.75714 18.7963 4.68934C18.8356 4.61043 19.0337 4.43413 19.5795 4.32943C20.0706 4.23523 20.6072 4.24774 20.9103 4.2962ZM38.0679 41.5728C37.2866 41.9636 36.5027 42.3493 35.7165 42.7322C36.0805 41.9486 36.4003 41.133 36.6877 40.2954C37.1467 40.7224 37.6068 41.1481 38.0679 41.5728ZM72.5701 47.593C71.9269 47.9599 71.2875 48.3261 70.6506 48.6909C67.3076 50.6056 64.0312 52.4822 60.622 54.2235C60.6544 53.6727 60.6884 53.1201 60.7224 52.5663C60.8392 50.6661 60.9569 48.751 61.0147 46.8426C63.6392 45.266 66.429 44.0121 69.2668 42.7365L69.5028 42.6304C72.1045 41.4607 74.7423 40.2655 77.2551 38.7916C77.2289 40.3344 77.2048 41.8872 77.2195 43.4379C77.225 44.0714 77.0909 44.5236 76.887 44.8745C76.6796 45.2316 76.3703 45.5345 75.9503 45.8229C75.5237 46.1158 75.0156 46.3723 74.4264 46.6554C74.3441 46.6949 74.2603 46.735 74.1751 46.7757C73.6668 47.0185 73.1114 47.2838 72.5701 47.593Z" fill="white" stroke="white" stroke-width="1.58513"/>
<path d="M36.7074 16.5841L36.6964 16.5573C36.6901 16.5421 36.6898 16.5415 36.6892 16.5405C36.6885 16.5391 36.6873 16.537 36.6715 16.4995C36.6609 16.4741 36.6454 16.4361 36.6302 16.3898C36.5148 16.0859 36.4683 15.7158 36.5818 15.3429C36.7052 14.9373 36.993 14.6121 37.396 14.4116C37.4431 14.388 37.488 14.3693 37.5093 14.3604C37.5107 14.3598 37.5121 14.3592 37.5133 14.3587C37.5298 14.3518 37.536 14.3491 37.5373 14.3486C37.5595 14.3375 37.5813 14.3273 37.6033 14.3177C40.4253 12.9402 43.4319 11.8966 46.383 10.8722C47.8274 10.3708 49.2585 9.87407 50.6482 9.34505L50.6484 9.34496C51.5342 9.00812 52.3315 8.88937 53.0753 8.98912C53.823 9.08941 54.4484 9.40142 55.0012 9.81575C55.5425 10.2215 56.033 10.7404 56.5079 11.2721C56.6478 11.4286 56.7861 11.5861 56.9256 11.7447C57.2748 12.1421 57.6305 12.5469 58.0324 12.9634L58.0329 12.9639C58.394 13.3389 58.5395 13.86 58.4978 14.3282C58.4548 14.8114 58.1961 15.3522 57.6194 15.6226L57.6188 15.6228C55.3535 16.6828 53.0106 17.5408 50.6767 18.3485C50.0447 18.5672 49.4148 18.7817 48.7871 18.9955C47.0849 19.5754 45.3994 20.1495 43.7357 20.7847C42.8702 21.1156 42.0953 21.2304 41.3795 21.1128C40.6561 20.9941 40.0764 20.6518 39.5833 20.2153C39.1035 19.7904 38.6813 19.2534 38.2781 18.7179C38.1929 18.6047 38.1081 18.491 38.023 18.3769C37.6923 17.9333 37.3563 17.4828 36.9677 17.0255L36.7074 16.5841ZM36.7074 16.5841L36.7204 16.61M36.7074 16.5841L36.7204 16.61M36.7204 16.61C36.721 16.6112 36.7216 16.6125 36.7223 16.6137M36.7204 16.61L36.7223 16.6137M36.7223 16.6137C36.7534 16.6872 36.8305 16.864 36.9676 17.0254L36.7223 16.6137ZM41.3937 17.368C41.191 17.1244 40.9787 16.85 40.7696 16.5705C42.7062 15.7377 44.6926 15.0557 46.7179 14.3604C47.4068 14.1239 48.1001 13.8859 48.7976 13.6398L48.7983 13.6395C49.1762 13.5058 49.6078 13.3052 50.0077 13.1192C50.1608 13.0481 50.3093 12.979 50.4483 12.9167C51.0043 12.6677 51.4586 12.5006 51.8144 12.4651L51.8145 12.4651C52.296 12.417 52.7661 12.5784 53.268 12.9266C53.5064 13.092 53.7383 13.2899 53.9675 13.5096C52.5755 14.0505 51.1531 14.519 49.7078 14.9903C49.626 15.017 49.544 15.0437 49.462 15.0705C47.7342 15.6336 45.9743 16.2073 44.2491 16.9103L44.249 16.9103C44.0636 16.9859 43.8148 17.1161 43.5803 17.2404C43.5232 17.2707 43.4653 17.3016 43.4069 17.3327C43.2076 17.4388 43.0016 17.5485 42.7956 17.6529C42.5274 17.7889 42.287 17.9013 42.0968 17.9722C42.0581 17.9866 42.0247 17.9981 41.9962 18.0071C41.9731 17.988 41.9444 17.9632 41.91 17.9312C41.7672 17.7984 41.5921 17.6066 41.3937 17.368ZM41.8827 18.0357C41.8828 18.0356 41.8855 18.0351 41.8907 18.0348C41.8852 18.0356 41.8826 18.0358 41.8827 18.0357Z" fill="white" stroke="white" stroke-width="1.58513"/>
<path d="M21.2971 17.131L21.2823 17.128L21.2674 17.1256C18.0355 16.592 15.5967 17.412 13.8897 19.1826C12.2246 20.9099 11.3534 23.4421 10.984 26.1624C10.5605 29.2799 10.6618 32.1329 11.7547 34.5062C12.8646 36.9164 14.9429 38.7177 18.2231 39.8187C21.5455 40.9341 24.2835 40.2328 26.2484 38.4174C28.168 36.6438 29.2644 33.8894 29.5723 31.0117C29.8811 28.125 29.41 25.0082 28.0725 22.434C26.7275 19.8456 24.4893 17.7837 21.2971 17.131ZM19.1708 36.5998L19.1707 36.5998C17.0439 35.9693 15.7465 34.9349 14.9908 33.6293C14.2228 32.3025 13.9546 30.5931 14.0961 28.5133L14.0962 28.5131C14.244 26.3357 14.603 24.0469 15.5647 22.4349C16.0349 21.6468 16.6338 21.0472 17.4041 20.6869C18.1711 20.328 19.1781 20.1737 20.5229 20.3934C24.3888 21.1924 26.3103 24.8994 26.2514 28.7891C26.2149 31.1762 25.7131 33.5725 24.5924 35.1311C24.0437 35.8941 23.3587 36.4415 22.5097 36.7156C21.6577 36.9907 20.5672 37.0141 19.1708 36.5998Z" fill="white" stroke="white" stroke-width="1.58513"/>
<path d="M61.2086 42.6866L61.2084 42.6867C60.2385 43.1973 59.3332 42.6726 58.9513 42.0196C58.7584 41.6897 58.6534 41.2687 58.7407 40.8373C58.8329 40.3817 59.125 39.9933 59.5765 39.7557C64.1048 37.3702 68.7244 35.2495 73.5001 33.4018L73.5002 33.4018C73.9761 33.2178 74.4672 33.2515 74.8737 33.5031C75.2547 33.7388 75.4807 34.115 75.5798 34.4806C75.774 35.1966 75.5385 36.2026 74.5421 36.5878L61.2086 42.6866ZM61.2086 42.6866C65.5511 40.3984 69.9688 38.3571 74.5419 36.5879L61.2086 42.6866Z" fill="white" stroke="white" stroke-width="1.58513"/>
<path d="M14.9012 11.245L14.9004 11.245C14.3907 11.2456 13.9555 11.4528 13.6586 11.7985C13.3758 12.1277 13.2532 12.54 13.253 12.9231C13.2527 13.3062 13.3747 13.719 13.658 14.0487C13.9555 14.3949 14.3914 14.6013 14.9012 14.6013C15.4112 14.6013 15.8466 14.394 16.1434 14.0482C16.426 13.7188 16.5483 13.3066 16.5486 12.9237C16.5489 12.5409 16.4271 12.1281 16.1443 11.7983C15.8471 11.4519 15.4113 11.245 14.9012 11.245Z" fill="white" stroke="white" stroke-width="1.58513"/>
</svg>
