<svg width="176" height="61" viewBox="0 0 176 61" fill="none" xmlns="http://www.w3.org/2000/svg">
<path d="M16.607 51.916H12.736C11.451 51.916 10.4 50.864 10.4 49.58V10.794C10.4 9.50904 11.451 8.45703 12.736 8.45703H16.607C17.892 8.45703 18.943 9.50904 18.943 10.794V49.58C18.943 50.864 17.892 51.916 16.607 51.916Z" fill="#666381"/>
<path d="M6.24899 46.8399H2.29399C1.03199 46.8399 0 45.8079 0 44.5459V15.8279C0 14.5659 1.03199 13.5339 2.29399 13.5339H6.24899C7.51099 13.5339 8.543 14.5659 8.543 15.8279V44.5459C8.543 45.8079 7.51099 46.8399 6.24899 46.8399Z" fill="#666381"/>
<path d="M26.975 56.373H23.17C21.867 56.373 20.801 55.307 20.801 54.004V6.36902C20.801 5.06602 21.867 4 23.17 4H26.975C28.278 4 29.344 5.06602 29.344 6.36902V54.004C29.344 55.307 28.277 56.373 26.975 56.373Z" fill="#666381"/>
<path d="M40 27.0281H24.9443V33.1621H40V27.0281Z" fill="#666381"/>
<path d="M158.953 51.916H162.824C164.109 51.916 165.16 50.864 165.16 49.58V10.794C165.16 9.50904 164.109 8.45703 162.824 8.45703H158.953C157.669 8.45703 156.617 9.50904 156.617 10.794V49.58C156.617 50.864 157.669 51.916 158.953 51.916Z" fill="#666381"/>
<path d="M169.312 46.8399H173.267C174.529 46.8399 175.561 45.8079 175.561 44.5459V15.8279C175.561 14.5659 174.529 13.5339 173.267 13.5339H169.312C168.05 13.5339 167.018 14.5659 167.018 15.8279V44.5459C167.018 45.8079 168.05 46.8399 169.312 46.8399Z" fill="#666381"/>
<path d="M148.586 56.373H152.391C153.695 56.373 154.76 55.307 154.76 54.004V6.36902C154.76 5.06602 153.695 4 152.391 4H148.586C147.283 4 146.217 5.06602 146.217 6.36902V54.004C146.217 55.307 147.284 56.373 148.586 56.373Z" fill="#666381"/>
<path d="M149 27H134V33H149V27Z" fill="#666381"/>
<path d="M38.5425 48V13.1953H45.5034V42.0674H52.6621V48H38.5425ZM62.9453 48.3164C60.1636 48.3164 58.0344 47.4792 56.5579 45.8049C55.0945 44.1174 54.3628 41.6851 54.3628 38.5078V21.9756C54.3628 18.9961 55.0879 16.7351 56.5381 15.1926C58.0015 13.6501 60.1372 12.8789 62.9453 12.8789C65.7534 12.8789 67.8826 13.6501 69.3328 15.1926C70.7961 16.7351 71.5278 18.9961 71.5278 21.9756V38.5078C71.5278 41.6851 70.7896 44.1174 69.313 45.8049C67.8496 47.4792 65.7271 48.3164 62.9453 48.3164ZM63.0046 41.9092C64.0593 41.9092 64.5867 40.8875 64.5867 38.844V21.8569C64.5867 20.1431 64.0725 19.2861 63.0442 19.2861C61.884 19.2861 61.304 20.1628 61.304 21.9163V38.8835C61.304 39.9646 61.4358 40.7424 61.6995 41.217C61.9631 41.6785 62.3982 41.9092 63.0046 41.9092ZM74.3359 48V13.1953H84.9355L87.8623 34.4143L90.7693 13.1953H101.468V48H95.1001V22.9248L91.1055 48H84.8564L80.6245 22.9248V48H74.3359ZM103.604 48L106.965 13.1953H118.771L122.074 48H115.489L114.994 42.3838H110.802L110.367 48H103.604ZM111.296 36.8269H114.46L112.938 19.1279H112.621L111.296 36.8269ZM132.476 48.3164C129.298 48.3164 127.004 47.5254 125.594 45.9434C124.196 44.3613 123.498 41.8433 123.498 38.3892V34.9878H130.379V39.3384C130.379 40.1426 130.498 40.7754 130.735 41.2368C130.986 41.6851 131.414 41.9092 132.021 41.9092C132.654 41.9092 133.089 41.7246 133.326 41.3555C133.576 40.9863 133.702 40.3799 133.702 39.5361C133.702 38.4683 133.596 37.5784 133.385 36.8665C133.174 36.1414 132.805 35.4558 132.278 34.8098C131.764 34.1506 131.045 33.386 130.122 32.5159L126.998 29.5496C124.664 27.3479 123.498 24.8298 123.498 21.9954C123.498 19.0291 124.183 16.7681 125.554 15.2124C126.938 13.6567 128.936 12.8789 131.546 12.8789C134.737 12.8789 136.998 13.7292 138.329 15.4299C139.674 17.1306 140.346 19.7146 140.346 23.1819H133.267V20.7891C133.267 20.3145 133.128 19.9453 132.851 19.6816C132.588 19.418 132.225 19.2861 131.764 19.2861C131.21 19.2861 130.801 19.4443 130.538 19.7607C130.287 20.064 130.162 20.4595 130.162 20.9473C130.162 21.4351 130.294 21.9624 130.557 22.5293C130.821 23.0962 131.342 23.7488 132.12 24.4871L136.134 28.3433C136.938 29.1079 137.677 29.9187 138.349 30.7756C139.021 31.6194 139.562 32.6082 139.97 33.7419C140.379 34.8625 140.583 36.2336 140.583 37.8552C140.583 41.1248 139.977 43.689 138.764 45.5479C137.564 47.3936 135.468 48.3164 132.476 48.3164Z" fill="#FF7A00"/>
</svg>
