<svg width="377" height="250" viewBox="0 0 377 250" fill="none" xmlns="http://www.w3.org/2000/svg">
<g filter="url(#filter0_d_562_5562)">
<rect x="25" y="10" width="327" height="200" rx="10" fill="url(#paint0_linear_562_5562)"/>
<mask id="mask0_562_5562" style="mask-type:alpha" maskUnits="userSpaceOnUse" x="25" y="10" width="327" height="200">
<path d="M25 20C25 14.4772 29.4772 10 35 10H342C347.523 10 352 14.4772 352 20V200C352 205.523 347.523 210 342 210H35C29.4772 210 25 205.523 25 200V20Z" fill="url(#paint1_linear_562_5562)"/>
</mask>
<g mask="url(#mask0_562_5562)">
<g style="mix-blend-mode:hard-light" opacity="0.5">
<path fill-rule="evenodd" clip-rule="evenodd" d="M46.5 286C98.1386 286 140 244.139 140 192.5C140 140.861 98.1386 99 46.5 99C-5.13862 99 -47 140.861 -47 192.5C-47 244.139 -5.13862 286 46.5 286ZM46.5 273.738C91.3663 273.738 127.738 237.366 127.738 192.5C127.738 147.634 91.3663 111.262 46.5 111.262C1.63365 111.262 -34.7377 147.634 -34.7377 192.5C-34.7377 237.366 1.63365 273.738 46.5 273.738Z" fill="#FFD600"/>
</g>
<g style="mix-blend-mode:hard-light" opacity="0.5">
<path fill-rule="evenodd" clip-rule="evenodd" d="M38.5 221C90.1386 221 132 179.139 132 127.5C132 75.8614 90.1386 34 38.5 34C-13.1386 34 -55 75.8614 -55 127.5C-55 179.139 -13.1386 221 38.5 221ZM38.5 208.738C83.3663 208.738 119.738 172.366 119.738 127.5C119.738 82.6337 83.3663 46.2623 38.5 46.2623C-6.36635 46.2623 -42.7377 82.6337 -42.7377 127.5C-42.7377 172.366 -6.36635 208.738 38.5 208.738Z" fill="#0064FA"/>
</g>
<g style="mix-blend-mode:hard-light" opacity="0.5">
<path d="M169.221 153.89L182.555 146.191L182.555 161.588L169.221 153.89Z" fill="#0064FA"/>
<path d="M156 153.89L169.335 146.191L169.335 161.588L156 153.89Z" fill="#FFD600"/>
</g>
</g>
</g>
<rect x="58" y="70" width="44" height="32" rx="5" fill="url(#paint2_linear_562_5562)" stroke="#A07400" stroke-width="0.5"/>
<rect x="61" y="73" width="15" height="6" rx="3" stroke="#A07400" stroke-width="0.5"/>
<rect x="84" y="73" width="15" height="6" rx="3" stroke="#A07400" stroke-width="0.5"/>
<rect x="61" y="83" width="15" height="6" rx="3" stroke="#A07400" stroke-width="0.5"/>
<rect x="84" y="83" width="15" height="6" rx="3" stroke="#A07400" stroke-width="0.5"/>
<rect x="61" y="93" width="15" height="6" rx="3" stroke="#A07400" stroke-width="0.5"/>
<rect x="84" y="93" width="15" height="6" rx="3" stroke="#A07400" stroke-width="0.5"/>
<path d="M70.888 122.04V125.616C70.888 127.792 70.4 129.44 69.424 130.56C68.448 131.68 67.088 132.24 65.344 132.24C63.6 132.24 62.24 131.68 61.264 130.56C60.304 129.44 59.824 127.792 59.824 125.616V122.04C59.824 119.88 60.312 118.24 61.288 117.12C62.264 116 63.616 115.44 65.344 115.44C67.088 115.44 68.448 116 69.424 117.12C70.4 118.24 70.888 119.88 70.888 122.04ZM68.776 122.04C68.776 120.376 68.472 119.176 67.864 118.44C67.272 117.704 66.432 117.336 65.344 117.336C64.272 117.336 63.432 117.704 62.824 118.44C62.232 119.176 61.936 120.376 61.936 122.04V125.616C61.936 127.264 62.232 128.472 62.824 129.24C63.432 129.992 64.272 130.368 65.344 130.368C66.432 130.368 67.272 129.992 67.864 129.24C68.472 128.472 68.776 127.264 68.776 125.616V122.04ZM87.5268 122.04V125.616C87.5268 127.792 87.0388 129.44 86.0628 130.56C85.0868 131.68 83.7268 132.24 81.9828 132.24C80.2388 132.24 78.8788 131.68 77.9028 130.56C76.9428 129.44 76.4628 127.792 76.4628 125.616V122.04C76.4628 119.88 76.9508 118.24 77.9268 117.12C78.9028 116 80.2548 115.44 81.9828 115.44C83.7268 115.44 85.0868 116 86.0628 117.12C87.0388 118.24 87.5268 119.88 87.5268 122.04ZM85.4148 122.04C85.4148 120.376 85.1108 119.176 84.5028 118.44C83.9108 117.704 83.0708 117.336 81.9828 117.336C80.9108 117.336 80.0708 117.704 79.4628 118.44C78.8708 119.176 78.5748 120.376 78.5748 122.04V125.616C78.5748 127.264 78.8708 128.472 79.4628 129.24C80.0708 129.992 80.9108 130.368 81.9828 130.368C83.0708 130.368 83.9108 129.992 84.5028 129.24C85.1108 128.472 85.4148 127.264 85.4148 125.616V122.04ZM104.166 122.04V125.616C104.166 127.792 103.678 129.44 102.702 130.56C101.726 131.68 100.366 132.24 98.6215 132.24C96.8775 132.24 95.5175 131.68 94.5415 130.56C93.5815 129.44 93.1015 127.792 93.1015 125.616V122.04C93.1015 119.88 93.5895 118.24 94.5655 117.12C95.5415 116 96.8935 115.44 98.6215 115.44C100.366 115.44 101.726 116 102.702 117.12C103.678 118.24 104.166 119.88 104.166 122.04ZM102.054 122.04C102.054 120.376 101.75 119.176 101.142 118.44C100.55 117.704 99.7095 117.336 98.6215 117.336C97.5495 117.336 96.7095 117.704 96.1015 118.44C95.5095 119.176 95.2135 120.376 95.2135 122.04V125.616C95.2135 127.264 95.5095 128.472 96.1015 129.24C96.7095 129.992 97.5495 130.368 98.6215 130.368C99.7095 130.368 100.55 129.992 101.142 129.24C101.75 128.472 102.054 127.264 102.054 125.616V122.04ZM120.804 122.04V125.616C120.804 127.792 120.316 129.44 119.34 130.56C118.364 131.68 117.004 132.24 115.26 132.24C113.516 132.24 112.156 131.68 111.18 130.56C110.22 129.44 109.74 127.792 109.74 125.616V122.04C109.74 119.88 110.228 118.24 111.204 117.12C112.18 116 113.532 115.44 115.26 115.44C117.004 115.44 118.364 116 119.34 117.12C120.316 118.24 120.804 119.88 120.804 122.04ZM118.692 122.04C118.692 120.376 118.388 119.176 117.78 118.44C117.188 117.704 116.348 117.336 115.26 117.336C114.188 117.336 113.348 117.704 112.74 118.44C112.148 119.176 111.852 120.376 111.852 122.04V125.616C111.852 127.264 112.148 128.472 112.74 129.24C113.348 129.992 114.188 130.368 115.26 130.368C116.348 130.368 117.188 129.992 117.78 129.24C118.388 128.472 118.692 127.264 118.692 125.616V122.04ZM144.59 122.04V125.616C144.59 127.792 144.102 129.44 143.126 130.56C142.15 131.68 140.79 132.24 139.046 132.24C137.302 132.24 135.942 131.68 134.966 130.56C134.006 129.44 133.526 127.792 133.526 125.616V122.04C133.526 119.88 134.014 118.24 134.99 117.12C135.966 116 137.318 115.44 139.046 115.44C140.79 115.44 142.15 116 143.126 117.12C144.102 118.24 144.59 119.88 144.59 122.04ZM142.478 122.04C142.478 120.376 142.174 119.176 141.566 118.44C140.974 117.704 140.134 117.336 139.046 117.336C137.974 117.336 137.134 117.704 136.526 118.44C135.934 119.176 135.638 120.376 135.638 122.04V125.616C135.638 127.264 135.934 128.472 136.526 129.24C137.134 129.992 137.974 130.368 139.046 130.368C140.134 130.368 140.974 129.992 141.566 129.24C142.174 128.472 142.478 127.264 142.478 125.616V122.04ZM161.228 122.04V125.616C161.228 127.792 160.74 129.44 159.764 130.56C158.788 131.68 157.428 132.24 155.684 132.24C153.94 132.24 152.58 131.68 151.604 130.56C150.644 129.44 150.164 127.792 150.164 125.616V122.04C150.164 119.88 150.652 118.24 151.628 117.12C152.604 116 153.956 115.44 155.684 115.44C157.428 115.44 158.788 116 159.764 117.12C160.74 118.24 161.228 119.88 161.228 122.04ZM159.116 122.04C159.116 120.376 158.812 119.176 158.204 118.44C157.612 117.704 156.772 117.336 155.684 117.336C154.612 117.336 153.772 117.704 153.164 118.44C152.572 119.176 152.276 120.376 152.276 122.04V125.616C152.276 127.264 152.572 128.472 153.164 129.24C153.772 129.992 154.612 130.368 155.684 130.368C156.772 130.368 157.612 129.992 158.204 129.24C158.812 128.472 159.116 127.264 159.116 125.616V122.04ZM177.867 122.04V125.616C177.867 127.792 177.379 129.44 176.403 130.56C175.427 131.68 174.067 132.24 172.323 132.24C170.579 132.24 169.219 131.68 168.243 130.56C167.283 129.44 166.803 127.792 166.803 125.616V122.04C166.803 119.88 167.291 118.24 168.267 117.12C169.243 116 170.595 115.44 172.323 115.44C174.067 115.44 175.427 116 176.403 117.12C177.379 118.24 177.867 119.88 177.867 122.04ZM175.755 122.04C175.755 120.376 175.451 119.176 174.843 118.44C174.251 117.704 173.411 117.336 172.323 117.336C171.251 117.336 170.411 117.704 169.803 118.44C169.211 119.176 168.915 120.376 168.915 122.04V125.616C168.915 127.264 169.211 128.472 169.803 129.24C170.411 129.992 171.251 130.368 172.323 130.368C173.411 130.368 174.251 129.992 174.843 129.24C175.451 128.472 175.755 127.264 175.755 125.616V122.04ZM194.506 122.04V125.616C194.506 127.792 194.018 129.44 193.042 130.56C192.066 131.68 190.706 132.24 188.962 132.24C187.218 132.24 185.858 131.68 184.882 130.56C183.922 129.44 183.442 127.792 183.442 125.616V122.04C183.442 119.88 183.93 118.24 184.906 117.12C185.882 116 187.234 115.44 188.962 115.44C190.706 115.44 192.066 116 193.042 117.12C194.018 118.24 194.506 119.88 194.506 122.04ZM192.394 122.04C192.394 120.376 192.09 119.176 191.482 118.44C190.89 117.704 190.05 117.336 188.962 117.336C187.89 117.336 187.05 117.704 186.442 118.44C185.85 119.176 185.554 120.376 185.554 122.04V125.616C185.554 127.264 185.85 128.472 186.442 129.24C187.05 129.992 187.89 130.368 188.962 130.368C190.05 130.368 190.89 129.992 191.482 129.24C192.09 128.472 192.394 127.264 192.394 125.616V122.04ZM218.291 122.04V125.616C218.291 127.792 217.803 129.44 216.827 130.56C215.851 131.68 214.491 132.24 212.747 132.24C211.003 132.24 209.643 131.68 208.667 130.56C207.707 129.44 207.227 127.792 207.227 125.616V122.04C207.227 119.88 207.715 118.24 208.691 117.12C209.667 116 211.019 115.44 212.747 115.44C214.491 115.44 215.851 116 216.827 117.12C217.803 118.24 218.291 119.88 218.291 122.04ZM216.179 122.04C216.179 120.376 215.875 119.176 215.267 118.44C214.675 117.704 213.835 117.336 212.747 117.336C211.675 117.336 210.835 117.704 210.227 118.44C209.635 119.176 209.339 120.376 209.339 122.04V125.616C209.339 127.264 209.635 128.472 210.227 129.24C210.835 129.992 211.675 130.368 212.747 130.368C213.835 130.368 214.675 129.992 215.267 129.24C215.875 128.472 216.179 127.264 216.179 125.616V122.04ZM234.93 122.04V125.616C234.93 127.792 234.442 129.44 233.466 130.56C232.49 131.68 231.13 132.24 229.386 132.24C227.642 132.24 226.282 131.68 225.306 130.56C224.346 129.44 223.866 127.792 223.866 125.616V122.04C223.866 119.88 224.354 118.24 225.33 117.12C226.306 116 227.658 115.44 229.386 115.44C231.13 115.44 232.49 116 233.466 117.12C234.442 118.24 234.93 119.88 234.93 122.04ZM232.818 122.04C232.818 120.376 232.514 119.176 231.906 118.44C231.314 117.704 230.474 117.336 229.386 117.336C228.314 117.336 227.474 117.704 226.866 118.44C226.274 119.176 225.978 120.376 225.978 122.04V125.616C225.978 127.264 226.274 128.472 226.866 129.24C227.474 129.992 228.314 130.368 229.386 130.368C230.474 130.368 231.314 129.992 231.906 129.24C232.514 128.472 232.818 127.264 232.818 125.616V122.04ZM251.569 122.04V125.616C251.569 127.792 251.081 129.44 250.105 130.56C249.129 131.68 247.769 132.24 246.025 132.24C244.281 132.24 242.921 131.68 241.945 130.56C240.985 129.44 240.505 127.792 240.505 125.616V122.04C240.505 119.88 240.993 118.24 241.969 117.12C242.945 116 244.297 115.44 246.025 115.44C247.769 115.44 249.129 116 250.105 117.12C251.081 118.24 251.569 119.88 251.569 122.04ZM249.457 122.04C249.457 120.376 249.153 119.176 248.545 118.44C247.953 117.704 247.113 117.336 246.025 117.336C244.953 117.336 244.113 117.704 243.505 118.44C242.913 119.176 242.617 120.376 242.617 122.04V125.616C242.617 127.264 242.913 128.472 243.505 129.24C244.113 129.992 244.953 130.368 246.025 130.368C247.113 130.368 247.953 129.992 248.545 129.24C249.153 128.472 249.457 127.264 249.457 125.616V122.04ZM268.207 122.04V125.616C268.207 127.792 267.719 129.44 266.743 130.56C265.767 131.68 264.407 132.24 262.663 132.24C260.919 132.24 259.559 131.68 258.583 130.56C257.623 129.44 257.143 127.792 257.143 125.616V122.04C257.143 119.88 257.631 118.24 258.607 117.12C259.583 116 260.935 115.44 262.663 115.44C264.407 115.44 265.767 116 266.743 117.12C267.719 118.24 268.207 119.88 268.207 122.04ZM266.095 122.04C266.095 120.376 265.791 119.176 265.183 118.44C264.591 117.704 263.751 117.336 262.663 117.336C261.591 117.336 260.751 117.704 260.143 118.44C259.551 119.176 259.255 120.376 259.255 122.04V125.616C259.255 127.264 259.551 128.472 260.143 129.24C260.751 129.992 261.591 130.368 262.663 130.368C263.751 130.368 264.591 129.992 265.183 129.24C265.791 128.472 266.095 127.264 266.095 125.616V122.04ZM291.993 122.04V125.616C291.993 127.792 291.505 129.44 290.529 130.56C289.553 131.68 288.193 132.24 286.449 132.24C284.705 132.24 283.345 131.68 282.369 130.56C281.409 129.44 280.929 127.792 280.929 125.616V122.04C280.929 119.88 281.417 118.24 282.393 117.12C283.369 116 284.721 115.44 286.449 115.44C288.193 115.44 289.553 116 290.529 117.12C291.505 118.24 291.993 119.88 291.993 122.04ZM289.881 122.04C289.881 120.376 289.577 119.176 288.969 118.44C288.377 117.704 287.537 117.336 286.449 117.336C285.377 117.336 284.537 117.704 283.929 118.44C283.337 119.176 283.041 120.376 283.041 122.04V125.616C283.041 127.264 283.337 128.472 283.929 129.24C284.537 129.992 285.377 130.368 286.449 130.368C287.537 130.368 288.377 129.992 288.969 129.24C289.577 128.472 289.881 127.264 289.881 125.616V122.04ZM308.631 122.04V125.616C308.631 127.792 308.143 129.44 307.167 130.56C306.191 131.68 304.831 132.24 303.087 132.24C301.343 132.24 299.983 131.68 299.007 130.56C298.047 129.44 297.567 127.792 297.567 125.616V122.04C297.567 119.88 298.055 118.24 299.031 117.12C300.007 116 301.359 115.44 303.087 115.44C304.831 115.44 306.191 116 307.167 117.12C308.143 118.24 308.631 119.88 308.631 122.04ZM306.519 122.04C306.519 120.376 306.215 119.176 305.607 118.44C305.015 117.704 304.175 117.336 303.087 117.336C302.015 117.336 301.175 117.704 300.567 118.44C299.975 119.176 299.679 120.376 299.679 122.04V125.616C299.679 127.264 299.975 128.472 300.567 129.24C301.175 129.992 302.015 130.368 303.087 130.368C304.175 130.368 305.015 129.992 305.607 129.24C306.215 128.472 306.519 127.264 306.519 125.616V122.04ZM325.27 122.04V125.616C325.27 127.792 324.782 129.44 323.806 130.56C322.83 131.68 321.47 132.24 319.726 132.24C317.982 132.24 316.622 131.68 315.646 130.56C314.686 129.44 314.206 127.792 314.206 125.616V122.04C314.206 119.88 314.694 118.24 315.67 117.12C316.646 116 317.998 115.44 319.726 115.44C321.47 115.44 322.83 116 323.806 117.12C324.782 118.24 325.27 119.88 325.27 122.04ZM323.158 122.04C323.158 120.376 322.854 119.176 322.246 118.44C321.654 117.704 320.814 117.336 319.726 117.336C318.654 117.336 317.814 117.704 317.206 118.44C316.614 119.176 316.318 120.376 316.318 122.04V125.616C316.318 127.264 316.614 128.472 317.206 129.24C317.814 129.992 318.654 130.368 319.726 130.368C320.814 130.368 321.654 129.992 322.246 129.24C322.854 128.472 323.158 127.264 323.158 125.616V122.04Z" fill="white"/>
<path d="M228.981 184.605V186.542C228.981 187.721 228.717 188.613 228.188 189.22C227.659 189.827 226.923 190.13 225.978 190.13C225.033 190.13 224.297 189.827 223.768 189.22C223.248 188.613 222.988 187.721 222.988 186.542V184.605C222.988 183.435 223.252 182.547 223.781 181.94C224.31 181.333 225.042 181.03 225.978 181.03C226.923 181.03 227.659 181.333 228.188 181.94C228.717 182.547 228.981 183.435 228.981 184.605ZM227.837 184.605C227.837 183.704 227.672 183.054 227.343 182.655C227.022 182.256 226.567 182.057 225.978 182.057C225.397 182.057 224.942 182.256 224.613 182.655C224.292 183.054 224.132 183.704 224.132 184.605V186.542C224.132 187.435 224.292 188.089 224.613 188.505C224.942 188.912 225.397 189.116 225.978 189.116C226.567 189.116 227.022 188.912 227.343 188.505C227.672 188.089 227.837 187.435 227.837 186.542V184.605ZM237.994 184.605V186.542C237.994 187.721 237.729 188.613 237.201 189.22C236.672 189.827 235.935 190.13 234.991 190.13C234.046 190.13 233.309 189.827 232.781 189.22C232.261 188.613 232.001 187.721 232.001 186.542V184.605C232.001 183.435 232.265 182.547 232.794 181.94C233.322 181.333 234.055 181.03 234.991 181.03C235.935 181.03 236.672 181.333 237.201 181.94C237.729 182.547 237.994 183.435 237.994 184.605ZM236.85 184.605C236.85 183.704 236.685 183.054 236.356 182.655C236.035 182.256 235.58 182.057 234.991 182.057C234.41 182.057 233.955 182.256 233.626 182.655C233.305 183.054 233.145 183.704 233.145 184.605V186.542C233.145 187.435 233.305 188.089 233.626 188.505C233.955 188.912 234.41 189.116 234.991 189.116C235.58 189.116 236.035 188.912 236.356 188.505C236.685 188.089 236.85 187.435 236.85 186.542V184.605ZM243.681 180.38H244.773L240.496 191.859H239.417L243.681 180.38ZM252.579 184.605V186.542C252.579 187.721 252.314 188.613 251.786 189.22C251.257 189.827 250.52 190.13 249.576 190.13C248.631 190.13 247.894 189.827 247.366 189.22C246.846 188.613 246.586 187.721 246.586 186.542V184.605C246.586 183.435 246.85 182.547 247.379 181.94C247.907 181.333 248.64 181.03 249.576 181.03C250.52 181.03 251.257 181.333 251.786 181.94C252.314 182.547 252.579 183.435 252.579 184.605ZM251.435 184.605C251.435 183.704 251.27 183.054 250.941 182.655C250.62 182.256 250.165 182.057 249.576 182.057C248.995 182.057 248.54 182.256 248.211 182.655C247.89 183.054 247.73 183.704 247.73 184.605V186.542C247.73 187.435 247.89 188.089 248.211 188.505C248.54 188.912 248.995 189.116 249.576 189.116C250.165 189.116 250.62 188.912 250.941 188.505C251.27 188.089 251.435 187.435 251.435 186.542V184.605ZM261.591 184.605V186.542C261.591 187.721 261.327 188.613 260.798 189.22C260.27 189.827 259.533 190.13 258.588 190.13C257.644 190.13 256.907 189.827 256.378 189.22C255.858 188.613 255.598 187.721 255.598 186.542V184.605C255.598 183.435 255.863 182.547 256.391 181.94C256.92 181.333 257.652 181.03 258.588 181.03C259.533 181.03 260.27 181.333 260.798 181.94C261.327 182.547 261.591 183.435 261.591 184.605ZM260.447 184.605C260.447 183.704 260.283 183.054 259.953 182.655C259.633 182.256 259.178 182.057 258.588 182.057C258.008 182.057 257.553 182.256 257.223 182.655C256.903 183.054 256.742 183.704 256.742 184.605V186.542C256.742 187.435 256.903 188.089 257.223 188.505C257.553 188.912 258.008 189.116 258.588 189.116C259.178 189.116 259.633 188.912 259.953 188.505C260.283 188.089 260.447 187.435 260.447 186.542V184.605Z" fill="white"/>
<path d="M65.37 147.85V149.34C65.37 150.247 65.1667 150.933 64.76 151.4C64.3533 151.867 63.7867 152.1 63.06 152.1C62.3333 152.1 61.7667 151.867 61.36 151.4C60.96 150.933 60.76 150.247 60.76 149.34V147.85C60.76 146.95 60.9633 146.267 61.37 145.8C61.7767 145.333 62.34 145.1 63.06 145.1C63.7867 145.1 64.3533 145.333 64.76 145.8C65.1667 146.267 65.37 146.95 65.37 147.85ZM64.49 147.85C64.49 147.157 64.3633 146.657 64.11 146.35C63.8633 146.043 63.5133 145.89 63.06 145.89C62.6133 145.89 62.2633 146.043 62.01 146.35C61.7633 146.657 61.64 147.157 61.64 147.85V149.34C61.64 150.027 61.7633 150.53 62.01 150.85C62.2633 151.163 62.6133 151.32 63.06 151.32C63.5133 151.32 63.8633 151.163 64.11 150.85C64.3633 150.53 64.49 150.027 64.49 149.34V147.85ZM72.3028 147.85V149.34C72.3028 150.247 72.0995 150.933 71.6928 151.4C71.2861 151.867 70.7195 152.1 69.9928 152.1C69.2661 152.1 68.6995 151.867 68.2928 151.4C67.8928 150.933 67.6928 150.247 67.6928 149.34V147.85C67.6928 146.95 67.8961 146.267 68.3028 145.8C68.7095 145.333 69.2728 145.1 69.9928 145.1C70.7195 145.1 71.2861 145.333 71.6928 145.8C72.0995 146.267 72.3028 146.95 72.3028 147.85ZM71.4228 147.85C71.4228 147.157 71.2961 146.657 71.0428 146.35C70.7961 146.043 70.4461 145.89 69.9928 145.89C69.5461 145.89 69.1961 146.043 68.9428 146.35C68.6961 146.657 68.5728 147.157 68.5728 147.85V149.34C68.5728 150.027 68.6961 150.53 68.9428 150.85C69.1961 151.163 69.5461 151.32 69.9928 151.32C70.4461 151.32 70.7961 151.163 71.0428 150.85C71.2961 150.53 71.4228 150.027 71.4228 149.34V147.85ZM79.2356 147.85V149.34C79.2356 150.247 79.0323 150.933 78.6256 151.4C78.219 151.867 77.6523 152.1 76.9256 152.1C76.199 152.1 75.6323 151.867 75.2256 151.4C74.8256 150.933 74.6256 150.247 74.6256 149.34V147.85C74.6256 146.95 74.829 146.267 75.2356 145.8C75.6423 145.333 76.2056 145.1 76.9256 145.1C77.6523 145.1 78.219 145.333 78.6256 145.8C79.0323 146.267 79.2356 146.95 79.2356 147.85ZM78.3556 147.85C78.3556 147.157 78.229 146.657 77.9756 146.35C77.729 146.043 77.379 145.89 76.9256 145.89C76.479 145.89 76.129 146.043 75.8756 146.35C75.629 146.657 75.5056 147.157 75.5056 147.85V149.34C75.5056 150.027 75.629 150.53 75.8756 150.85C76.129 151.163 76.479 151.32 76.9256 151.32C77.379 151.32 77.729 151.163 77.9756 150.85C78.229 150.53 78.3556 150.027 78.3556 149.34V147.85ZM86.1684 147.85V149.34C86.1684 150.247 85.9651 150.933 85.5584 151.4C85.1518 151.867 84.5851 152.1 83.8584 152.1C83.1318 152.1 82.5651 151.867 82.1584 151.4C81.7584 150.933 81.5584 150.247 81.5584 149.34V147.85C81.5584 146.95 81.7618 146.267 82.1684 145.8C82.5751 145.333 83.1384 145.1 83.8584 145.1C84.5851 145.1 85.1518 145.333 85.5584 145.8C85.9651 146.267 86.1684 146.95 86.1684 147.85ZM85.2884 147.85C85.2884 147.157 85.1618 146.657 84.9084 146.35C84.6618 146.043 84.3118 145.89 83.8584 145.89C83.4118 145.89 83.0618 146.043 82.8084 146.35C82.5618 146.657 82.4384 147.157 82.4384 147.85V149.34C82.4384 150.027 82.5618 150.53 82.8084 150.85C83.0618 151.163 83.4118 151.32 83.8584 151.32C84.3118 151.32 84.6618 151.163 84.9084 150.85C85.1618 150.53 85.2884 150.027 85.2884 149.34V147.85Z" fill="white"/>
<path d="M281.057 99V98.103C280.658 98.4843 280.294 98.753 279.965 98.909C279.644 99.0563 279.311 99.13 278.964 99.13C278.279 99.13 277.751 98.87 277.378 98.35C277.014 97.83 276.832 97.102 276.832 96.166V95.412C276.832 94.502 277.057 93.7783 277.508 93.241C277.967 92.7037 278.63 92.435 279.497 92.435C279.748 92.435 280 92.461 280.251 92.513C280.502 92.565 280.754 92.6387 281.005 92.734V89.38H282.071V99H281.057ZM277.937 96.166C277.937 96.842 278.041 97.3403 278.249 97.661C278.466 97.973 278.786 98.129 279.211 98.129C279.462 98.129 279.722 98.0683 279.991 97.947C280.26 97.817 280.598 97.5527 281.005 97.154V93.722C280.754 93.6093 280.511 93.5313 280.277 93.488C280.043 93.436 279.813 93.41 279.588 93.41C278.999 93.41 278.574 93.5877 278.314 93.943C278.063 94.2983 277.937 94.788 277.937 95.412V96.166ZM290.075 98.623C289.685 98.8137 289.295 98.9437 288.905 99.013C288.515 99.091 288.155 99.13 287.826 99.13C286.898 99.13 286.205 98.8657 285.746 98.337C285.295 97.8083 285.07 97.0847 285.07 96.166V95.386C285.07 94.4933 285.295 93.7783 285.746 93.241C286.205 92.7037 286.851 92.435 287.683 92.435C288.125 92.435 288.528 92.526 288.892 92.708C289.264 92.8813 289.559 93.15 289.776 93.514C290.001 93.8693 290.114 94.3287 290.114 94.892C290.114 95.256 290.062 95.672 289.958 96.14H286.123V96.166C286.123 96.8247 286.257 97.323 286.526 97.661C286.803 97.999 287.245 98.168 287.852 98.168C288.129 98.168 288.432 98.1333 288.762 98.064C289.1 97.9947 289.429 97.8863 289.75 97.739L290.075 98.623ZM287.683 93.371C287.18 93.371 286.799 93.5357 286.539 93.865C286.287 94.1857 286.149 94.6407 286.123 95.23H289.035C289.061 95.074 289.074 94.9267 289.074 94.788C289.074 94.3027 288.935 93.9473 288.658 93.722C288.389 93.488 288.064 93.371 287.683 93.371ZM298.198 96.166C298.198 97.0673 297.973 97.7867 297.522 98.324C297.072 98.8613 296.409 99.13 295.533 99.13C294.667 99.13 293.809 98.9003 292.959 98.441V89.38H294.025V93.436C294.415 93.072 294.771 92.8163 295.091 92.669C295.421 92.513 295.754 92.435 296.092 92.435C296.768 92.435 297.288 92.695 297.652 93.215C298.016 93.735 298.198 94.4673 298.198 95.412V96.166ZM295.832 93.436C295.59 93.436 295.33 93.501 295.052 93.631C294.784 93.761 294.441 94.0297 294.025 94.437V97.843C294.537 98.0597 295.018 98.168 295.468 98.168C296.049 98.168 296.465 97.9903 296.716 97.635C296.968 97.271 297.093 96.7813 297.093 96.166V95.412C297.093 94.736 296.989 94.2377 296.781 93.917C296.573 93.5963 296.257 93.436 295.832 93.436ZM302.342 90.992H301.146V89.796H302.342V90.992ZM302.277 99H301.211V92.565H302.277V99ZM309.152 98.766C308.666 99.0087 308.151 99.13 307.605 99.13C307.137 99.13 306.768 99.0347 306.5 98.844C306.24 98.6533 306.053 98.3977 305.941 98.077C305.837 97.7563 305.785 97.401 305.785 97.011V93.501H304.667V92.565H305.785V90.771H306.851V92.565H308.957V93.501H306.851V96.972C306.851 97.4227 306.924 97.7347 307.072 97.908C307.228 98.0727 307.466 98.155 307.787 98.155C307.943 98.155 308.103 98.1377 308.268 98.103C308.441 98.0597 308.627 97.9903 308.827 97.895L309.152 98.766ZM316.69 95.386V96.166C316.69 97.0847 316.452 97.8083 315.975 98.337C315.507 98.8657 314.835 99.13 313.96 99.13C313.093 99.13 312.422 98.8657 311.945 98.337C311.468 97.8083 311.23 97.0847 311.23 96.166V95.386C311.23 94.4847 311.464 93.7697 311.932 93.241C312.409 92.7037 313.085 92.435 313.96 92.435C314.835 92.435 315.507 92.7037 315.975 93.241C316.452 93.7697 316.69 94.4847 316.69 95.386ZM315.585 95.386C315.585 94.7707 315.446 94.2897 315.169 93.943C314.892 93.5877 314.489 93.41 313.96 93.41C313.44 93.41 313.037 93.5877 312.751 93.943C312.474 94.2897 312.335 94.7707 312.335 95.386V96.166C312.335 96.8073 312.474 97.3013 312.751 97.648C313.037 97.9947 313.44 98.168 313.96 98.168C314.489 98.168 314.892 97.9947 315.169 97.648C315.446 97.3013 315.585 96.8073 315.585 96.166V95.386Z" fill="white"/>
<path d="M67.058 176L66.395 173.946H63.041L62.378 176H61.273L64.211 167.16H65.277L68.228 176H67.058ZM63.86 171.398L63.366 172.919H66.057L65.563 171.398L64.718 168.668L63.86 171.398ZM73.2609 176.13C72.7756 176.13 72.2729 176.03 71.7529 175.831V178.769H70.6869V169.565H71.7009V170.475C72.0996 170.094 72.4636 169.825 72.7929 169.669C73.1223 169.513 73.4603 169.435 73.8069 169.435C74.4916 169.435 75.0159 169.695 75.3799 170.215C75.7526 170.735 75.9389 171.467 75.9389 172.412V173.166C75.9389 174.067 75.7093 174.787 75.2499 175.324C74.7993 175.861 74.1363 176.13 73.2609 176.13ZM73.5469 170.436C73.2956 170.436 73.0356 170.501 72.7669 170.631C72.4983 170.761 72.1603 171.025 71.7529 171.424V174.856C72.0043 174.969 72.2469 175.051 72.4809 175.103C72.7149 175.146 72.9446 175.168 73.1699 175.168C73.7593 175.168 74.1839 174.99 74.4439 174.635C74.7039 174.271 74.8339 173.781 74.8339 173.166V172.412C74.8339 171.736 74.7256 171.238 74.5089 170.917C74.3009 170.596 73.9803 170.436 73.5469 170.436ZM83.6176 175.623C83.2276 175.814 82.8376 175.944 82.4476 176.013C82.0576 176.091 81.6979 176.13 81.3686 176.13C80.4412 176.13 79.7479 175.866 79.2886 175.337C78.8379 174.808 78.6126 174.085 78.6126 173.166V172.386C78.6126 171.493 78.8379 170.778 79.2886 170.241C79.7479 169.704 80.3936 169.435 81.2256 169.435C81.6676 169.435 82.0706 169.526 82.4346 169.708C82.8072 169.881 83.1019 170.15 83.3186 170.514C83.5439 170.869 83.6566 171.329 83.6566 171.892C83.6566 172.256 83.6046 172.672 83.5006 173.14H79.6656V173.166C79.6656 173.825 79.7999 174.323 80.0686 174.661C80.3459 174.999 80.7879 175.168 81.3946 175.168C81.6719 175.168 81.9752 175.133 82.3046 175.064C82.6426 174.995 82.9719 174.886 83.2926 174.739L83.6176 175.623ZM81.2256 170.371C80.7229 170.371 80.3416 170.536 80.0816 170.865C79.8302 171.186 79.6916 171.641 79.6656 172.23H82.5776C82.6036 172.074 82.6166 171.927 82.6166 171.788C82.6166 171.303 82.4779 170.947 82.2006 170.722C81.9319 170.488 81.6069 170.371 81.2256 170.371ZM86.5283 174.44V166.38H87.5943V174.388C87.5943 174.622 87.629 174.8 87.6983 174.921C87.7763 175.034 87.928 175.09 88.1533 175.09H88.3613V176.065H88.0623C87.4903 176.065 87.0917 175.913 86.8663 175.61C86.641 175.307 86.5283 174.917 86.5283 174.44ZM90.9961 174.44V166.38H92.0621V174.388C92.0621 174.622 92.0967 174.8 92.1661 174.921C92.2441 175.034 92.3957 175.09 92.6211 175.09H92.8291V176.065H92.5301C91.9581 176.065 91.5594 175.913 91.3341 175.61C91.1087 175.307 90.9961 174.917 90.9961 174.44ZM96.6078 167.992H95.4118V166.796H96.6078V167.992ZM96.5428 176H95.4768V169.565H96.5428V176ZM103.794 176V175.103C103.395 175.484 103.031 175.753 102.702 175.909C102.381 176.056 102.048 176.13 101.701 176.13C101.016 176.13 100.488 175.87 100.115 175.35C99.7511 174.83 99.5691 174.102 99.5691 173.166V172.412C99.5691 171.502 99.7944 170.778 100.245 170.241C100.704 169.704 101.367 169.435 102.234 169.435C102.485 169.435 102.737 169.461 102.988 169.513C103.239 169.565 103.491 169.639 103.742 169.734V166.38H104.808V176H103.794ZM100.674 173.166C100.674 173.842 100.778 174.34 100.986 174.661C101.203 174.973 101.523 175.129 101.948 175.129C102.199 175.129 102.459 175.068 102.728 174.947C102.997 174.817 103.335 174.553 103.742 174.154V170.722C103.491 170.609 103.248 170.531 103.014 170.488C102.78 170.436 102.55 170.41 102.325 170.41C101.736 170.41 101.311 170.588 101.051 170.943C100.8 171.298 100.674 171.788 100.674 172.412V173.166ZM113.241 172.386V173.166C113.241 174.085 113.002 174.808 112.526 175.337C112.058 175.866 111.386 176.13 110.511 176.13C109.644 176.13 108.972 175.866 108.496 175.337C108.019 174.808 107.781 174.085 107.781 173.166V172.386C107.781 171.485 108.015 170.77 108.483 170.241C108.959 169.704 109.635 169.435 110.511 169.435C111.386 169.435 112.058 169.704 112.526 170.241C113.002 170.77 113.241 171.485 113.241 172.386ZM112.136 172.386C112.136 171.771 111.997 171.29 111.72 170.943C111.442 170.588 111.039 170.41 110.511 170.41C109.991 170.41 109.588 170.588 109.302 170.943C109.024 171.29 108.886 171.771 108.886 172.386V173.166C108.886 173.807 109.024 174.301 109.302 174.648C109.588 174.995 109.991 175.168 110.511 175.168C111.039 175.168 111.442 174.995 111.72 174.648C111.997 174.301 112.136 173.807 112.136 173.166V172.386ZM122.286 176.65C122.009 177.43 121.666 177.998 121.259 178.353C120.86 178.717 120.301 178.899 119.582 178.899V177.846C119.877 177.837 120.128 177.798 120.336 177.729C120.553 177.66 120.743 177.517 120.908 177.3C121.081 177.092 121.246 176.78 121.402 176.364L121.532 176.039L119.218 169.565H120.31L121.389 172.698L122.052 174.7L122.689 172.698L123.742 169.565H124.795L122.286 176.65ZM131.366 176V167.16H132.549C133.338 168.287 134.061 169.422 134.72 170.566C135.387 171.701 136.011 172.889 136.592 174.128L136.462 170.748V167.16H137.567V176H136.384C135.777 174.735 135.149 173.504 134.499 172.308C133.858 171.103 133.156 169.929 132.393 168.785L132.471 172.386V176H131.366ZM146.243 172.386V173.166C146.243 174.085 146.005 174.808 145.528 175.337C145.06 175.866 144.389 176.13 143.513 176.13C142.647 176.13 141.975 175.866 141.498 175.337C141.022 174.808 140.783 174.085 140.783 173.166V172.386C140.783 171.485 141.017 170.77 141.485 170.241C141.962 169.704 142.638 169.435 143.513 169.435C144.389 169.435 145.06 169.704 145.528 170.241C146.005 170.77 146.243 171.485 146.243 172.386ZM145.138 172.386C145.138 171.771 145 171.29 144.722 170.943C144.445 170.588 144.042 170.41 143.513 170.41C142.993 170.41 142.59 170.588 142.304 170.943C142.027 171.29 141.888 171.771 141.888 172.386V173.166C141.888 173.807 142.027 174.301 142.304 174.648C142.59 174.995 142.993 175.168 143.513 175.168C144.042 175.168 144.445 174.995 144.722 174.648C145 174.301 145.138 173.807 145.138 173.166V172.386ZM152.25 170.436C152.007 170.436 151.734 170.501 151.431 170.631C151.127 170.752 150.746 170.995 150.287 171.359V176H149.221V169.565H150.235V170.462C150.694 170.081 151.101 169.816 151.457 169.669C151.812 169.513 152.163 169.435 152.51 169.435C152.917 169.435 153.255 169.53 153.524 169.721C153.792 169.903 153.992 170.167 154.122 170.514C154.598 170.107 155.023 169.825 155.396 169.669C155.777 169.513 156.15 169.435 156.514 169.435C157.086 169.435 157.523 169.626 157.827 170.007C158.13 170.38 158.282 170.913 158.282 171.606V176H157.216V171.762C157.216 170.878 156.895 170.436 156.254 170.436C156.011 170.436 155.734 170.501 155.422 170.631C155.118 170.752 154.737 170.995 154.278 171.359C154.286 171.394 154.291 171.433 154.291 171.476C154.291 171.519 154.291 171.563 154.291 171.606V176H153.225V171.762C153.225 170.878 152.9 170.436 152.25 170.436ZM166.759 173.166C166.759 174.067 166.534 174.787 166.083 175.324C165.633 175.861 164.97 176.13 164.094 176.13C163.228 176.13 162.37 175.9 161.52 175.441V166.38H162.586V170.436C162.976 170.072 163.332 169.816 163.652 169.669C163.982 169.513 164.315 169.435 164.653 169.435C165.329 169.435 165.849 169.695 166.213 170.215C166.577 170.735 166.759 171.467 166.759 172.412V173.166ZM164.393 170.436C164.151 170.436 163.891 170.501 163.613 170.631C163.345 170.761 163.002 171.03 162.586 171.437V174.843C163.098 175.06 163.579 175.168 164.029 175.168C164.61 175.168 165.026 174.99 165.277 174.635C165.529 174.271 165.654 173.781 165.654 173.166V172.412C165.654 171.736 165.55 171.238 165.342 170.917C165.134 170.596 164.818 170.436 164.393 170.436ZM173.152 170.501C172.762 170.501 172.381 170.57 172.008 170.709C171.644 170.848 171.254 171.112 170.838 171.502V176H169.772V169.565H170.786V170.605C171.228 170.172 171.631 169.868 171.995 169.695C172.368 169.522 172.754 169.435 173.152 169.435V170.501ZM180.253 175.623C179.863 175.814 179.473 175.944 179.083 176.013C178.693 176.091 178.333 176.13 178.004 176.13C177.076 176.13 176.383 175.866 175.924 175.337C175.473 174.808 175.248 174.085 175.248 173.166V172.386C175.248 171.493 175.473 170.778 175.924 170.241C176.383 169.704 177.029 169.435 177.861 169.435C178.303 169.435 178.706 169.526 179.07 169.708C179.442 169.881 179.737 170.15 179.954 170.514C180.179 170.869 180.292 171.329 180.292 171.892C180.292 172.256 180.24 172.672 180.136 173.14H176.301V173.166C176.301 173.825 176.435 174.323 176.704 174.661C176.981 174.999 177.423 175.168 178.03 175.168C178.307 175.168 178.61 175.133 178.94 175.064C179.278 174.995 179.607 174.886 179.928 174.739L180.253 175.623ZM177.861 170.371C177.358 170.371 176.977 170.536 176.717 170.865C176.465 171.186 176.327 171.641 176.301 172.23H179.213C179.239 172.074 179.252 171.927 179.252 171.788C179.252 171.303 179.113 170.947 178.836 170.722C178.567 170.488 178.242 170.371 177.861 170.371Z" fill="white"/>
<path d="M203.258 179.92L201.956 184H201.428L200.12 179.92H200.672L201.32 181.99L201.71 183.298L202.106 181.984L202.742 179.92H203.258ZM206.422 184L206.116 183.052H204.568L204.262 184H203.752L205.108 179.92H205.6L206.962 184H206.422ZM204.946 181.876L204.718 182.578H205.96L205.732 181.876L205.342 180.616L204.946 181.876ZM210.437 183.514V184H208.205V179.92H208.727V183.514H210.437ZM212.243 184H211.721V179.92H212.243V184ZM213.999 184V179.92H215.265C215.733 179.92 216.093 180.062 216.345 180.346C216.597 180.626 216.723 181.014 216.723 181.51V182.404C216.723 182.904 216.597 183.296 216.345 183.58C216.093 183.86 215.733 184 215.265 184H213.999ZM215.253 180.412H214.521V183.514H215.253C215.873 183.514 216.183 183.144 216.183 182.404V181.51C216.183 180.778 215.873 180.412 215.253 180.412ZM200.078 186.412V185.92H202.976V186.412H201.788V190H201.266V186.412H200.078ZM206.473 190V188.182H204.691V190H204.169V185.92H204.691V187.69H206.473V185.92H206.995V190H206.473ZM209.266 188.404V190H208.744V185.92H210.022C210.406 185.92 210.702 186.022 210.91 186.226C211.122 186.426 211.228 186.694 211.228 187.03V187.288C211.228 187.528 211.172 187.736 211.06 187.912C210.952 188.088 210.796 188.218 210.592 188.302C210.764 188.578 210.924 188.858 211.072 189.142C211.22 189.426 211.356 189.712 211.48 190H210.88C210.652 189.456 210.386 188.924 210.082 188.404H209.266ZM210.022 186.4H209.266V187.924H210.022C210.226 187.924 210.388 187.868 210.508 187.756C210.628 187.64 210.688 187.484 210.688 187.288V187.03C210.688 186.83 210.628 186.676 210.508 186.568C210.388 186.456 210.226 186.4 210.022 186.4ZM212.744 185.92H213.284V188.536C213.284 188.864 213.352 189.12 213.488 189.304C213.628 189.488 213.844 189.58 214.136 189.58C214.432 189.58 214.648 189.488 214.784 189.304C214.92 189.12 214.988 188.864 214.988 188.536V185.92H215.528V188.536C215.528 189.012 215.412 189.386 215.18 189.658C214.948 189.926 214.6 190.06 214.136 190.06C213.668 190.06 213.318 189.926 213.086 189.658C212.858 189.386 212.744 189.012 212.744 188.536V185.92Z" fill="white"/>
<path d="M64.393 38.8294H63.5053C60.5399 38.8294 58.0571 36.4838 58.001 33.5195C57.9437 30.486 60.3941 28 63.4146 28H71.8649C72.4611 28 72.9449 28.4838 72.9449 29.0799C72.9449 29.676 72.4611 30.1598 71.8649 30.1598H63.4837C61.7127 30.1598 60.2137 31.5464 60.1608 33.3164C60.1057 35.1555 61.5863 36.6696 63.4146 36.6696H64.393C64.9891 36.6696 65.4729 37.1534 65.4729 37.7495C65.4729 38.3467 64.9891 38.8294 64.393 38.8294Z" fill="white"/>
<path d="M67.4539 38.8293C68.0504 38.8293 68.5339 38.3458 68.5339 37.7493C68.5339 37.1529 68.0504 36.6694 67.4539 36.6694C66.8575 36.6694 66.374 37.1529 66.374 37.7493C66.374 38.3458 66.8575 38.8293 67.4539 38.8293Z" fill="white"/>
<path d="M66.5529 32.335H67.4406C70.4061 32.335 72.8888 34.6805 72.945 37.6449C73.0022 40.6784 70.5519 43.1644 67.5313 43.1644H59.0799C58.4838 43.1644 58 42.6806 58 42.0844C58 41.4883 58.4838 41.0045 59.0799 41.0045H67.4611C69.2322 41.0045 70.7311 39.6179 70.784 37.8479C70.8391 36.0088 69.3586 34.4948 67.5303 34.4948H66.5529C65.9568 34.4948 65.473 34.011 65.473 33.4149C65.473 32.8188 65.9568 32.335 66.5529 32.335Z" fill="white"/>
<path d="M63.492 34.4948C64.0884 34.4948 64.5719 34.0113 64.5719 33.4149C64.5719 32.8185 64.0884 32.335 63.492 32.335C62.8956 32.335 62.4121 32.8185 62.4121 33.4149C62.4121 34.0113 62.8956 34.4948 63.492 34.4948Z" fill="white"/>
<path d="M81.435 42L83.115 32.48H85.873C86.8157 32.48 87.5064 32.7227 87.945 33.208C88.393 33.6933 88.5517 34.328 88.421 35.112L88.351 35.532C88.295 35.8773 88.1737 36.1853 87.987 36.456C87.8097 36.7267 87.5624 36.9507 87.245 37.128C87.5997 37.3333 87.8517 37.6133 88.001 37.968C88.1504 38.3133 88.1877 38.7147 88.113 39.172L88.043 39.592C87.959 40.1053 87.805 40.5393 87.581 40.894C87.357 41.2487 87.0257 41.524 86.587 41.72C86.1577 41.9067 85.5837 42 84.865 42H81.435ZM85.747 34.02H84.529L84.109 36.4H85.327C85.691 36.4 85.985 36.33 86.209 36.19C86.433 36.0407 86.5684 35.8353 86.615 35.574L86.699 35.112C86.7644 34.776 86.713 34.51 86.545 34.314C86.377 34.118 86.111 34.02 85.747 34.02ZM85.397 37.94H83.829L83.381 40.46H84.949C85.341 40.46 85.6537 40.3807 85.887 40.222C86.1297 40.0633 86.2744 39.844 86.321 39.564L86.405 39.102C86.4704 38.7473 86.4144 38.4673 86.237 38.262C86.0597 38.0473 85.7797 37.94 85.397 37.94ZM94.7761 42L94.5101 40.138H91.2481L90.3381 42H88.6021L93.4601 32.48H94.9441L96.4561 42H94.7761ZM92.6761 37.226L92.0041 38.598H94.3001L94.1041 37.226L93.8241 34.818L92.6761 37.226ZM98.0464 42L99.7264 32.48H101.266C101.668 33.292 102.027 34.0527 102.344 34.762C102.662 35.462 102.956 36.162 103.226 36.862C103.506 37.5527 103.777 38.29 104.038 39.074L104.402 36.12L105.046 32.48H106.656L104.976 42H103.436C103.035 40.6933 102.615 39.4753 102.176 38.346C101.747 37.2073 101.28 36.0873 100.776 34.986L100.3 38.36L99.6564 42H98.0464ZM112.741 42L111.075 37.758C110.87 37.9447 110.664 38.1313 110.459 38.318C110.254 38.5047 110.044 38.696 109.829 38.892L109.283 42H107.603L109.283 32.48H110.963L110.193 36.862C111.014 36.0873 111.733 35.3407 112.349 34.622C112.965 33.9033 113.511 33.1893 113.987 32.48H115.919C115.368 33.2733 114.799 34.02 114.211 34.72C113.623 35.42 113.021 36.078 112.405 36.694L114.659 42H112.741Z" fill="white"/>
<path d="M283.23 173.324L275.91 191.056H271.134L267.531 176.905C267.312 176.033 267.122 175.714 266.457 175.347C265.371 174.749 263.578 174.188 262 173.839L262.107 173.324H269.795C270.775 173.324 271.656 173.986 271.879 175.132L273.782 185.393L278.484 173.324H283.23ZM301.945 185.266C301.964 180.586 295.57 180.329 295.614 178.238C295.628 177.602 296.224 176.925 297.531 176.753C298.178 176.666 299.962 176.601 301.985 177.546L302.779 173.786C301.692 173.386 300.293 173 298.552 173C294.086 173 290.943 175.41 290.917 178.861C290.888 181.414 293.16 182.839 294.872 183.687C296.633 184.556 297.224 185.114 297.217 185.891C297.205 187.08 295.813 187.605 294.512 187.626C292.241 187.662 290.923 187.002 289.872 186.506L289.053 190.391C290.109 190.883 292.058 191.312 294.078 191.333C298.825 191.333 301.93 188.953 301.945 185.266ZM313.738 191.056H317.917L314.269 173.324H310.412C309.545 173.324 308.813 173.836 308.489 174.625L301.709 191.056H306.453L307.395 188.407H313.192L313.738 191.056ZM308.696 184.773L311.074 178.115L312.443 184.773H308.696ZM289.686 173.324L285.95 191.056H281.432L285.17 173.324H289.686Z" fill="white"/>
<defs>
<filter id="filter0_d_562_5562" x="0" y="0" width="377" height="250" filterUnits="userSpaceOnUse" color-interpolation-filters="sRGB">
<feFlood flood-opacity="0" result="BackgroundImageFix"/>
<feColorMatrix in="SourceAlpha" type="matrix" values="0 0 0 0 0 0 0 0 0 0 0 0 0 0 0 0 0 0 127 0" result="hardAlpha"/>
<feOffset dy="15"/>
<feGaussianBlur stdDeviation="12.5"/>
<feComposite in2="hardAlpha" operator="out"/>
<feColorMatrix type="matrix" values="0 0 0 0 0 0 0 0 0 0 0 0 0 0 0 0 0 0 0.15 0"/>
<feBlend mode="normal" in2="BackgroundImageFix" result="effect1_dropShadow_562_5562"/>
<feBlend mode="normal" in="SourceGraphic" in2="effect1_dropShadow_562_5562" result="shape"/>
</filter>
<linearGradient id="paint0_linear_562_5562" x1="3.49999" y1="221" x2="342.503" y2="-22.6293" gradientUnits="userSpaceOnUse">
<stop stop-color="#002481"/>
<stop offset="0.931312" stop-color="#1FAEFF"/>
</linearGradient>
<linearGradient id="paint1_linear_562_5562" x1="3.49999" y1="221" x2="342.503" y2="-22.6293" gradientUnits="userSpaceOnUse">
<stop stop-color="#002481"/>
<stop offset="0.931312" stop-color="#1FAEFF"/>
</linearGradient>
<linearGradient id="paint2_linear_562_5562" x1="58" y1="70" x2="103.179" y2="100.238" gradientUnits="userSpaceOnUse">
<stop stop-color="#DAAA00"/>
<stop offset="0.510417" stop-color="#FFF9CF"/>
<stop offset="1" stop-color="#F0CA00"/>
</linearGradient>
</defs>
</svg>